<?xml version="1.0" encoding="UTF-8"?><!DOCTYPE svg PUBLIC "-//W3C//DTD SVG 1.1//EN" "http://www.w3.org/Graphics/SVG/1.1/DTD/svg11.dtd"><svg xmlns="http://www.w3.org/2000/svg" xmlns:xlink="http://www.w3.org/1999/xlink"><defs><clipPath id="clip0"><path d="M0 0h32v32H0z"/></clipPath><clipPath id="clip0"><path d="M0 0h32v32H0z"/></clipPath></defs><symbol id="pttrn-graphic-patterns-framework"><path d="M237.5 5.99L305.798 124H169.202L237.5 5.99z" class="fill-marigold-30t stroke-marigold" stroke="6" stroke-width="6" stroke-linejoin="round"/><rect x="351" y="5" width="116" height="116" rx="3" class="fill-blue-30t stroke-blue" stroke="6" stroke-width="6" stroke-linejoin="round"/><circle cx="68" cy="32" r="29" class="fill-pink-30t stroke-pink" stroke="6" stroke-width="6"/><circle cx="31.5" cy="95.5" r="28.5" class="fill-pink-30t stroke-pink" stroke="6" stroke-width="6"/><circle cx="104" cy="95" r="29" class="fill-pink-30t stroke-pink" stroke="6" stroke-width="6"/></symbol><symbol id="pttrn-a-perfect-heart" viewBox="0 0 32 32"><g clip-path="url(#clip0)"><path d="M28.105 17.844L16.183 29.766 4.261 17.844A8.43 8.43 0 1116.183 5.922a8.43 8.43 0 0111.922 11.922z" fill="currentColor"/></g></symbol><symbol id="pttrn-a-perfect-heart-red" viewBox="0 0 32 32"><g clip-path="url(#clip0)"><path d="M28.105 17.844L16.183 29.766 4.261 17.844A8.43 8.43 0 1116.183 5.922a8.43 8.43 0 0111.922 11.922z" fill="#FC5D52"/></g></symbol></svg>