<?xml version="1.0" encoding="UTF-8"?><!DOCTYPE svg PUBLIC "-//W3C//DTD SVG 1.1//EN" "http://www.w3.org/Graphics/SVG/1.1/DTD/svg11.dtd"><svg xmlns="http://www.w3.org/2000/svg" xmlns:xlink="http://www.w3.org/1999/xlink"><defs><clipPath id="clip0"><path d="M0 0h32v32H0z"/></clipPath><clipPath id="clip0"><path d="M0 0h32v32H0z"/></clipPath></defs><symbol id="pttrn-graphic-patterns-framework" viewBox="0 0 470 127"><path d="M237.5 5.99L305.798 124H169.202L237.5 5.99z" class="fill-marigold-30t stroke-marigold" stroke="6" stroke-width="6" stroke-linejoin="round"/><rect x="351" y="5" width="116" height="116" rx="3" class="fill-blue-30t stroke-blue" stroke="6" stroke-width="6" stroke-linejoin="round"/><circle cx="68" cy="32" r="29" class="fill-pink-30t stroke-pink" stroke="6" stroke-width="6"/><circle cx="31.5" cy="95.5" r="28.5" class="fill-pink-30t stroke-pink" stroke="6" stroke-width="6"/><circle cx="104" cy="95" r="29" class="fill-pink-30t stroke-pink" stroke="6" stroke-width="6"/></symbol><symbol id="pttrn-favicon"><path d="M262.562 8.289V56.71l-41.134 40.57v24.43L213.113 130h24.506l24.506 24.43v24.429l-8.315 7.852h-41.134v-7.852h-32.821v32.282h32.821v-8.289h41.134l8.315 8.289v24.429L237.619 260h-81.832l-24.506-25.302v-80.705l24.506-24.429h24.506l-8.315-8.289v-24.43l-40.697-40.134v64.564l-8.314 8.289h-32.82l-41.135-40.57v32.281l-8.315 8.289H8.314L0 121.275V7.852L8.314 0h32.82L82.27 40.57V8.29L90.146 0h32.821l8.314 8.289L139.596 0h32.82l8.314 8.289v16.14l16.192 16.142 16.629-16.141V8.289L221.428 0h32.82l8.314 8.289zm-5.251 132.181c-3.063 0-5.689-2.181-5.689-5.671s2.626-5.671 5.689-5.671 5.689 2.181 5.689 5.671c-.438 3.49-3.063 5.671-5.689 5.671zm0-10.034c-2.625 0-4.376 1.745-4.376 4.363 0 2.617 1.751 4.798 4.376 4.798 2.626 0 4.376-1.745 4.376-4.798-.437-2.618-2.188-4.363-4.376-4.363zm-1.313 7.853h-.875v-6.108h2.188c1.313 0 2.188.436 2.188 1.745 0 1.309-.875 1.745-1.75 1.745l1.75 2.618h-1.313l-1.75-2.618h-.875v2.618h.437zm1.313-3.49c.875 0 1.313 0 1.313-.873 0-.872-.875-.872-1.313-.872h-1.313v1.745h1.313z" fill="#ffdbdb"/><style/></symbol><symbol id="pttrn-a-perfect-heart" viewBox="0 0 32 32"><g clip-path="url(#clip0)"><path d="M28.105 17.844L16.183 29.766 4.261 17.844A8.43 8.43 0 1116.183 5.922a8.43 8.43 0 0111.922 11.922z" fill="currentColor"/></g></symbol><symbol id="pttrn-a-perfect-heart-red" viewBox="0 0 32 32"><g clip-path="url(#clip0)"><path d="M28.105 17.844L16.183 29.766 4.261 17.844A8.43 8.43 0 1116.183 5.922a8.43 8.43 0 0111.922 11.922z" fill="#FC5D52"/></g></symbol></svg>